<svg aria-hidden="true" style="position: absolute; width: 0; height: 0; overflow: hidden;" version="1.1" xmlns="http://www.w3.org/2000/svg" xmlns:xlink="http://www.w3.org/1999/xlink">
<defs>
<symbol id="icon-envelope-hover" viewBox="0 0 43 32">
<path fill="#2196f3" style="fill: var(--color1, #2196f3)" d="M38.667 0h-34.667c-2.206 0-4 1.794-4 4v24c0 2.206 1.794 4 4 4h34.667c2.206 0 4-1.794 4-4v-24c0-2.206-1.794-4-4-4zM38.667 2.667c0.181 0 0.353 0.038 0.511 0.103l-17.844 15.466-17.844-15.466c0.158-0.066 0.33-0.103 0.511-0.103h34.667zM38.667 29.333h-34.667c-0.736 0-1.333-0.598-1.333-1.333v-22.413l17.793 15.421c0.251 0.217 0.563 0.326 0.874 0.326s0.622-0.108 0.874-0.326l17.793-15.421v22.413c0 0.736-0.598 1.333-1.333 1.333z"></path>
</symbol>
<symbol id="icon-group2" viewBox="0 0 57 32">
<path d="M20.267 3.733l3.738 3.538-6.938-0.004v17.166h18.133v-6.564l3.733 3.534v-17.671h-18.667zM35.036 17.455l-10.597-10.032h10.597v10.032zM31.746 21.923h-11.81v-11.545h0.835v10.764h10.975v0.782zM22.725 26.72l-0.436 0.898-0.436-0.898h-0.366l0.637 1.198v0.698h0.331v-0.698l0.635-1.198h-0.365zM23.273 28.615l0.154-0.441h0.734l0.155 0.441h0.344l-0.717-1.896h-0.296l-0.716 1.896h0.342zM23.794 27.122l0.275 0.786h-0.549l0.275-0.786zM25.531 27.863c-0.048 0.073-0.072 0.153-0.072 0.241 0 0.16 0.056 0.29 0.168 0.389s0.263 0.148 0.451 0.148 0.349-0.051 0.484-0.152l0.107 0.126h0.367l-0.279-0.329c0.109-0.149 0.164-0.341 0.164-0.574h-0.275c0 0.128-0.026 0.243-0.079 0.348l-0.366-0.432 0.129-0.094c0.091-0.066 0.157-0.132 0.197-0.198s0.060-0.14 0.060-0.219c0-0.12-0.044-0.22-0.133-0.301s-0.201-0.122-0.339-0.122c-0.153 0-0.274 0.043-0.365 0.13s-0.135 0.203-0.135 0.352c0 0.061 0.014 0.124 0.043 0.189s0.081 0.144 0.155 0.237c-0.141 0.101-0.235 0.188-0.283 0.262zM26.386 28.282c-0.093 0.071-0.193 0.107-0.299 0.107-0.095 0-0.17-0.027-0.227-0.082s-0.085-0.126-0.085-0.214c0-0.102 0.052-0.192 0.156-0.271l0.040-0.029 0.414 0.488zM26.046 27.442c-0.089-0.11-0.134-0.202-0.134-0.275 0-0.063 0.018-0.116 0.055-0.158s0.085-0.063 0.147-0.063c0.057 0 0.105 0.018 0.142 0.053s0.056 0.077 0.056 0.126c0 0.075-0.027 0.136-0.081 0.184l-0.040 0.033-0.145 0.099zM29.132 28.472c0.13-0.114 0.205-0.272 0.224-0.474h-0.328c-0.017 0.135-0.059 0.232-0.124 0.29s-0.162 0.087-0.292 0.087c-0.142 0-0.249-0.054-0.323-0.161s-0.109-0.264-0.109-0.469v-0.168c0.002-0.202 0.041-0.355 0.117-0.46s0.188-0.158 0.331-0.158c0.123 0 0.217 0.030 0.28 0.091s0.104 0.158 0.12 0.294h0.328c-0.021-0.207-0.095-0.368-0.223-0.482s-0.296-0.171-0.505-0.171c-0.155 0-0.293 0.037-0.411 0.111s-0.209 0.179-0.272 0.315c-0.063 0.136-0.095 0.294-0.095 0.473v0.177c0.003 0.174 0.035 0.328 0.098 0.46s0.151 0.234 0.266 0.306c0.115 0.071 0.249 0.107 0.4 0.107 0.216 0 0.389-0.056 0.52-0.169zM31.068 28.206c0.064-0.141 0.096-0.304 0.096-0.49v-0.105c-0.001-0.185-0.034-0.347-0.099-0.486s-0.158-0.247-0.277-0.32c-0.119-0.075-0.256-0.112-0.41-0.112s-0.292 0.038-0.411 0.113c-0.119 0.075-0.211 0.183-0.277 0.324s-0.098 0.305-0.098 0.49v0.107c0.001 0.181 0.034 0.342 0.099 0.48s0.159 0.246 0.279 0.322c0.121 0.075 0.258 0.112 0.411 0.112 0.155 0 0.293-0.037 0.411-0.112s0.212-0.183 0.276-0.323zM30.716 27.135c0.080 0.112 0.12 0.273 0.12 0.483v0.099c0 0.214-0.040 0.376-0.119 0.487s-0.19 0.167-0.336 0.167c-0.144 0-0.257-0.057-0.339-0.171s-0.121-0.275-0.121-0.483v-0.109c0.002-0.204 0.043-0.362 0.122-0.473s0.192-0.168 0.335-0.168c0.146 0 0.258 0.056 0.337 0.168z"></path>
</symbol>
<symbol id="icon-group3" viewBox="0 0 57 32">
<path d="M19.417 26.187c0.008 0 0.017 0.002 0.025 0.005s0.015 0.007 0.020 0.013l0.116 0.111c-0.090 0.090-0.202 0.162-0.327 0.211-0.147 0.053-0.305 0.079-0.464 0.076-0.149 0.003-0.298-0.021-0.436-0.071-0.125-0.045-0.237-0.113-0.329-0.2-0.094-0.089-0.166-0.194-0.212-0.308-0.051-0.127-0.076-0.261-0.074-0.396-0.002-0.135 0.025-0.27 0.080-0.397 0.051-0.115 0.127-0.22 0.225-0.308 0.099-0.087 0.218-0.155 0.349-0.201 0.143-0.048 0.296-0.072 0.449-0.071 0.143-0.003 0.285 0.019 0.417 0.064 0.115 0.043 0.221 0.104 0.313 0.178l-0.097 0.119c-0.007 0.008-0.015 0.016-0.025 0.021-0.012 0.007-0.025 0.010-0.039 0.009-0.015-0.001-0.030-0.005-0.042-0.013l-0.052-0.032-0.073-0.040c-0.031-0.015-0.064-0.028-0.097-0.039-0.043-0.013-0.087-0.024-0.132-0.032-0.057-0.009-0.115-0.013-0.173-0.013-0.111-0.001-0.22 0.017-0.323 0.053-0.096 0.034-0.182 0.084-0.253 0.149-0.073 0.069-0.128 0.15-0.164 0.238-0.041 0.101-0.061 0.207-0.060 0.313-0.002 0.108 0.018 0.216 0.060 0.318 0.035 0.087 0.090 0.167 0.161 0.236 0.067 0.064 0.149 0.114 0.241 0.147 0.095 0.034 0.197 0.051 0.3 0.050 0.059 0.001 0.119-0.003 0.177-0.010 0.096-0.010 0.188-0.039 0.269-0.085 0.041-0.023 0.079-0.049 0.115-0.078 0.015-0.012 0.035-0.020 0.055-0.020z"></path>
</symbol>
<symbol id="icon-group6" viewBox="0 0 57 32">
<path d="M28.493 14.618c-0.236-0.315-0.349-0.686-0.323-1.061v-1.538c0-0.471 0.107-0.83 0.321-1.075s0.581-0.367 1.102-0.366c0.489 0 0.836 0.104 1.042 0.313 0.224 0.266 0.333 0.592 0.308 0.92v0.361h-0.875v-0.366c0.003-0.12-0.005-0.24-0.025-0.358-0.013-0.081-0.057-0.156-0.125-0.213-0.090-0.061-0.203-0.091-0.317-0.083-0.12-0.008-0.239 0.024-0.333 0.088-0.076 0.063-0.127 0.145-0.145 0.235-0.025 0.126-0.037 0.253-0.034 0.38v1.866c-0.014 0.18 0.025 0.36 0.112 0.524 0.044 0.055 0.104 0.099 0.175 0.127s0.149 0.038 0.226 0.029c0.112 0.008 0.223-0.022 0.31-0.084 0.071-0.061 0.117-0.141 0.13-0.227 0.020-0.124 0.030-0.249 0.027-0.374v-0.379h0.875v0.346c0.025 0.342-0.082 0.682-0.303 0.967-0.201 0.228-0.544 0.343-1.047 0.343s-0.884-0.122-1.1-0.375z"></path>
</symbol>
<symbol id="icon-group5" viewBox="0 0 57 32">
<path d="M14.27 23.859c0.13 0.147 0.199 0.332 0.196 0.521 0.007 0.123-0.017 0.247-0.070 0.361s-0.132 0.216-0.233 0.297c-0.252 0.175-0.565 0.26-0.881 0.24h-1.549v-3.302h1.517c0.299-0.018 0.596 0.059 0.84 0.219 0.098 0.075 0.176 0.17 0.227 0.277s0.074 0.224 0.068 0.341c0.009 0.182-0.054 0.361-0.176 0.505-0.118 0.131-0.28 0.222-0.462 0.258 0.205 0.034 0.391 0.134 0.523 0.282zM12.454 23.36h0.648c0.147 0.010 0.294-0.029 0.412-0.11 0.049-0.040 0.087-0.090 0.111-0.146s0.034-0.116 0.028-0.176c0.005-0.060-0.005-0.12-0.029-0.175s-0.061-0.106-0.108-0.147c-0.122-0.083-0.273-0.123-0.425-0.111h-0.638v0.866zM13.578 24.627c0.052-0.041 0.093-0.093 0.12-0.151s0.038-0.121 0.034-0.184c0.004-0.064-0.008-0.127-0.035-0.186s-0.069-0.111-0.121-0.153c-0.127-0.086-0.283-0.128-0.44-0.119h-0.68v0.908h0.689c0.155 0.008 0.309-0.032 0.435-0.114z"></path>
</symbol>
<symbol id="icon-group4" viewBox="0 0 57 32">
<path d="M12.878 11.255h-0.002c-1.279 0-2.316 0.921-2.316 2.058v0.001c0 1.137 1.037 2.058 2.316 2.058h0.002c1.279 0 2.316-0.921 2.316-2.058v-0.001c0-1.137-1.037-2.058-2.316-2.058z"></path>
</symbol>
<symbol id="icon-group1" viewBox="0 0 57 32">
<path d="M20.267 3.733l3.738 3.538-6.938-0.004v17.166h18.133v-6.564l3.733 3.534v-17.671h-18.667zM35.036 17.455l-10.597-10.032h10.597v10.032zM31.746 21.923h-11.81v-11.545h0.835v10.764h10.975v0.782zM22.725 26.72l-0.436 0.898-0.436-0.898h-0.366l0.637 1.198v0.698h0.331v-0.698l0.635-1.198h-0.365zM23.273 28.615l0.154-0.441h0.734l0.155 0.441h0.344l-0.717-1.896h-0.296l-0.716 1.896h0.342zM23.794 27.122l0.275 0.786h-0.549l0.275-0.786zM25.531 27.863c-0.048 0.073-0.072 0.153-0.072 0.241 0 0.16 0.056 0.29 0.168 0.389s0.263 0.148 0.451 0.148 0.349-0.051 0.484-0.152l0.107 0.126h0.367l-0.279-0.329c0.109-0.149 0.164-0.341 0.164-0.574h-0.275c0 0.128-0.026 0.243-0.079 0.348l-0.366-0.432 0.129-0.094c0.091-0.066 0.157-0.132 0.197-0.198s0.060-0.14 0.060-0.219c0-0.12-0.044-0.22-0.133-0.301s-0.201-0.122-0.339-0.122c-0.153 0-0.274 0.043-0.365 0.13s-0.135 0.203-0.135 0.352c0 0.061 0.014 0.124 0.043 0.189s0.081 0.144 0.155 0.237c-0.141 0.101-0.235 0.188-0.283 0.262zM26.386 28.282c-0.093 0.071-0.193 0.107-0.299 0.107-0.095 0-0.17-0.027-0.227-0.082s-0.085-0.126-0.085-0.214c0-0.102 0.052-0.192 0.156-0.271l0.040-0.029 0.414 0.488zM26.046 27.442c-0.089-0.11-0.134-0.202-0.134-0.275 0-0.063 0.018-0.116 0.055-0.158s0.085-0.063 0.147-0.063c0.057 0 0.105 0.018 0.142 0.053s0.056 0.077 0.056 0.126c0 0.075-0.027 0.136-0.081 0.184l-0.040 0.033-0.145 0.099zM29.132 28.472c0.13-0.114 0.205-0.272 0.224-0.474h-0.328c-0.017 0.135-0.059 0.232-0.124 0.29s-0.162 0.087-0.292 0.087c-0.142 0-0.249-0.054-0.323-0.161s-0.109-0.264-0.109-0.469v-0.168c0.002-0.202 0.041-0.355 0.117-0.46s0.188-0.158 0.331-0.158c0.123 0 0.217 0.030 0.28 0.091s0.104 0.158 0.12 0.294h0.328c-0.021-0.207-0.095-0.368-0.223-0.482s-0.296-0.171-0.505-0.171c-0.155 0-0.293 0.037-0.411 0.111s-0.209 0.179-0.272 0.315c-0.063 0.136-0.095 0.294-0.095 0.473v0.177c0.003 0.174 0.035 0.328 0.098 0.46s0.151 0.234 0.266 0.306c0.115 0.071 0.249 0.107 0.4 0.107 0.216 0 0.389-0.056 0.52-0.169zM31.068 28.206c0.064-0.141 0.096-0.304 0.096-0.49v-0.105c-0.001-0.185-0.034-0.347-0.099-0.486s-0.158-0.247-0.277-0.32c-0.119-0.075-0.256-0.112-0.41-0.112s-0.292 0.038-0.411 0.113c-0.119 0.075-0.211 0.183-0.277 0.324s-0.098 0.305-0.098 0.49v0.107c0.001 0.181 0.034 0.342 0.099 0.48s0.159 0.246 0.279 0.322c0.121 0.075 0.258 0.112 0.411 0.112 0.155 0 0.293-0.037 0.411-0.112s0.212-0.183 0.276-0.323zM30.716 27.135c0.080 0.112 0.12 0.273 0.12 0.483v0.099c0 0.214-0.040 0.376-0.119 0.487s-0.19 0.167-0.336 0.167c-0.144 0-0.257-0.057-0.339-0.171s-0.121-0.275-0.121-0.483v-0.109c0.002-0.204 0.043-0.362 0.122-0.473s0.192-0.168 0.335-0.168c0.146 0 0.258 0.056 0.337 0.168z"></path>
</symbol>
<symbol id="icon-antenna" viewBox="0 0 30 32">
<path d="M29.859 22.098l-8.443-8.505 0.937-4.615c0.242 0.094 0.499 0.144 0.758 0.146h0.006c1.192 0.014 2.17-0.941 2.184-2.133s-0.941-2.17-2.133-2.184c-1.192-0.014-2.17 0.941-2.184 2.133-0.003 0.255 0.039 0.509 0.125 0.749l-4.96 0.605-8.091-8.133c-0.099-0.101-0.235-0.159-0.377-0.16-0.14 0.001-0.274 0.056-0.373 0.155l-1.513 1.504c-0.208 0.208-0.208 0.546 0 0.754l0.814 0.826c-3.153 5.798-2.129 12.978 2.519 17.663 0.043 0.041 0.092 0.074 0.146 0.098-0.034 0.18-0.051 0.364-0.052 0.547v6.187h-6.4c-1.472 0.002-2.665 1.195-2.667 2.667v1.067c0 0.295 0.239 0.533 0.533 0.533h24.533c0.295 0 0.533-0.239 0.533-0.533v-1.067c-0.002-1.472-1.195-2.665-2.667-2.667h-6.4v-2.742c1.003 0.21 2.024 0.317 3.049 0.32 2.458-0.003 4.877-0.615 7.040-1.783l0.818 0.823c0.099 0.101 0.235 0.159 0.377 0.16 0.14-0.001 0.274-0.056 0.373-0.155l1.513-1.504c0.208-0.208 0.208-0.546 0-0.754zM22.366 6.233c0.418-0.415 1.093-0.414 1.508 0.004s0.414 1.093-0.004 1.508c-0.2 0.199-0.47 0.31-0.752 0.31h-0.003c-0.589-0.003-1.064-0.483-1.061-1.072 0.002-0.282 0.115-0.552 0.314-0.751h-0.002zM21.11 9.738l-0.598 2.946-1.175-1.182 1.774-1.763zM20.504 8.836l-1.92 1.909-1.485-1.493 3.405-0.415zM23.090 28.8c0.884 0 1.6 0.716 1.6 1.6v0.533h-23.467v-0.533c0-0.884 0.716-1.6 1.6-1.6h20.267zM15.623 26.667v1.067h-5.333v-1.067h5.333zM10.29 25.6v-4.053c0-1.294 1.196-2.347 2.667-2.347s2.667 1.053 2.667 2.347v4.053h-5.333zM16.69 23.904v-2.357c0-1.882-1.675-3.413-3.733-3.413-1.331-0.020-2.576 0.657-3.281 1.786-4.058-4.274-4.971-10.645-2.279-15.887l18.602 18.708c-2.872 1.461-6.165 1.873-9.309 1.163zM27.979 23.22l-21.057-21.181 0.755-0.752 7.935 7.98c0.004 0 0.006 0.007 0.010 0.010l13.115 13.191-0.757 0.752z"></path>
</symbol>
<symbol id="icon-cloc" viewBox="0 0 31 32">
<path d="M30.84 15.301c-0.002-8.452-6.855-15.303-15.308-15.301s-15.303 6.855-15.301 15.308c0.001 6.658 4.307 12.551 10.649 14.576 0.061 0.019 0.124 0.029 0.187 0.029 0.121-0 0.239-0.032 0.342-0.094 0.135-0.080 0.236-0.207 0.283-0.356l3.865-12.25c1.057-0.005 1.909-0.866 1.903-1.923s-0.866-1.909-1.923-1.903c-0.284 0.001-0.565 0.067-0.82 0.191l-5.106-5.107c-0.253-0.245-0.657-0.238-0.902 0.016-0.239 0.247-0.239 0.639 0 0.886l5.103 5.109c-0.392 0.799-0.168 1.764 0.536 2.309l-3.683 11.673c-7.278-2.681-11.004-10.754-8.323-18.032s10.754-11.004 18.032-8.323 11.004 10.754 8.323 18.032c-1.31 3.556-4.001 6.431-7.462 7.973l-0.398-1.874c-0.073-0.344-0.411-0.565-0.756-0.492-0.109 0.023-0.209 0.074-0.292 0.148l-3.837 3.426c-0.263 0.234-0.287 0.637-0.052 0.9 0.076 0.085 0.174 0.149 0.283 0.184l4.899 1.563c0.335 0.108 0.694-0.077 0.802-0.412 0.034-0.106 0.040-0.219 0.017-0.328l-0.391-1.839c5.664-2.388 9.342-7.942 9.329-14.089zM15.535 14.664c0.352 0 0.638 0.286 0.638 0.638s-0.286 0.638-0.638 0.638c-0.352 0-0.638-0.285-0.638-0.638s0.285-0.638 0.638-0.638zM17.635 29.528l2.184-1.948 0.603 2.84-2.787-0.892z"></path>
</symbol>
<symbol id="icon-diagram" viewBox="0 0 41 32">
<path d="M2.073 31.933h33.168c1.145 0 2.073-0.928 2.073-2.073v-2.764c0-1.145-0.928-2.073-2.073-2.073h-0.691v-17.232l3.925-3.718c0.911 0.449 2.014 0.176 2.61-0.646s0.513-1.955-0.198-2.681-1.841-0.834-2.677-0.256c-0.835 0.578-1.132 1.675-0.703 2.595l-2.957 2.803v-1.594c0-1.145-0.928-2.073-2.073-2.073h-27.64c-1.145 0-2.073 0.928-2.073 2.073v20.73h-0.691c-1.145 0-2.073 0.928-2.073 2.073v2.764c0 1.145 0.928 2.073 2.073 2.073zM39.387 1.529c0.382 0 0.691 0.309 0.691 0.691s-0.309 0.691-0.691 0.691c-0.382 0-0.691-0.309-0.691-0.691s0.309-0.691 0.691-0.691zM4.146 4.293c0-0.382 0.309-0.691 0.691-0.691h27.64c0.382 0 0.691 0.309 0.691 0.691v2.902l-1.382 1.313v-2.833c0-0.382-0.309-0.691-0.691-0.691h-24.876c-0.382 0-0.691 0.309-0.691 0.691v17.275c0 0.382 0.309 0.691 0.691 0.691h24.876c0.382 0 0.691-0.309 0.691-0.691v-12.541l1.382-1.309v15.923h-29.022v-20.73zM10.365 13.276c-0.935-0.003-1.756 0.62-2.004 1.521s0.136 1.857 0.94 2.334c0.804 0.477 1.828 0.357 2.499-0.293l2.402 1.205c0.279 0.14 0.617 0.074 0.825-0.159l5.106-5.744 5.019 3.761c0.269 0.202 0.645 0.18 0.889-0.051l4.362-4.132v10.54h-23.494v-15.893h23.494v3.449l-4.889 4.63-5.061-3.794c-0.287-0.215-0.692-0.175-0.931 0.094l-5.176 5.824-1.935-0.968c0.014-0.083 0.023-0.167 0.026-0.251 0-1.145-0.928-2.073-2.073-2.073zM11.056 15.349c0 0.382-0.309 0.691-0.691 0.691s-0.691-0.309-0.691-0.691c0-0.382 0.309-0.691 0.691-0.691s0.691 0.309 0.691 0.691zM15.202 26.405h6.91v0.691c0 0.382-0.309 0.691-0.691 0.691h-5.528c-0.382 0-0.691-0.309-0.691-0.691v-0.691zM1.382 27.096c0-0.382 0.309-0.691 0.691-0.691h11.747v0.691c0 1.145 0.928 2.073 2.073 2.073h5.528c1.145 0 2.073-0.928 2.073-2.073v-0.691h11.747c0.382 0 0.691 0.309 0.691 0.691v2.764c0 0.382-0.309 0.691-0.691 0.691h-33.168c-0.382 0-0.691-0.309-0.691-0.691v-2.764z"></path>
</symbol>
<symbol id="icon-astronaut" viewBox="0 0 29 32">
<path d="M28.361 13.626c-0.33-0.445-0.814-0.731-1.364-0.809-0.552-0.078-1.097 0.067-1.537 0.404l-1.437 1.102-2.178 1.626-1.558-0.621c2.779-1.247 4.721-4.026 4.721-7.253 0-4.387-3.583-7.956-7.988-7.956s-7.988 3.569-7.988 7.956c0 1.59 0.476 3.069 1.285 4.313l-3.172-0.028c-0.002 0-0.004 0-0.005 0-0.010 0-0.018 0.005-0.027 0.005-0.061 0.002-0.12 0.015-0.178 0.036-0.015 0.005-0.030 0.009-0.044 0.015-0.007 0.003-0.015 0.004-0.022 0.007l-3.71 1.832c-0.001 0-0.001 0-0.001 0.001l-2.173 1.045c-0.024 0.010-0.048 0.024-0.072 0.040-0.866 0.577-1.161 1.709-0.687 2.634 0.253 0.492 0.683 0.854 1.212 1.020 0.204 0.064 0.412 0.095 0.619 0.095 0.332 0 0.662-0.081 0.963-0.242l1.593-0.847 2.598-1.342 1.557-0.009-6.245 6.215c-0.001 0.001-0.001 0.001-0.002 0.001l-1.536 1.53c-0.363 0.361-0.562 0.84-0.562 1.351s0.2 0.991 0.562 1.353c0.373 0.371 0.863 0.557 1.353 0.557s0.98-0.186 1.354-0.557l1.508-1.502 1.998-1.491 1.034 1.029-2.022 2.013c-0.001 0.001-0.001 0.001-0.002 0.001l-1.536 1.53c-0.363 0.361-0.562 0.84-0.562 1.351s0.2 0.991 0.562 1.353c0.373 0.371 0.864 0.557 1.354 0.557s0.981-0.186 1.354-0.557l3.995-3.978c0.001-0.001 0.001-0.001 0.001-0.002l1.159-1.148-0.004-0.004c0.007-0.007 0.018-0.010 0.025-0.018l5.928-6.493 3.983 0.567c0.029 0.004 0.058 0.006 0.086 0.006 0.074 0 0.146-0.018 0.215-0.044 0.020-0.007 0.038-0.017 0.057-0.027 0.022-0.011 0.045-0.017 0.066-0.031l3.687-2.448c0.013-0.009 0.021-0.024 0.034-0.034 0.015-0.012 0.033-0.016 0.046-0.029l1.459-1.367c0.759-0.711 0.864-1.877 0.243-2.71zM2.445 17.769c-0.199 0.107-0.425 0.128-0.641 0.059-0.214-0.067-0.388-0.213-0.49-0.411-0.185-0.36-0.078-0.798 0.246-1.035l1.507-0.725 0.515 1.506-1.138 0.605zM6.458 15.672l-1.777 0.918-0.504-1.473 2.326-1.148-0.045 1.703zM23.785 8.074c0 1.054-0.252 2.048-0.687 2.937l-4.798-2.179c-0.050-0.658-0.392-1.234-0.905-1.593l1.68-5.577c2.728 0.868 4.71 3.413 4.71 6.412zM10.257 8.074c0-3.712 3.034-6.732 6.764-6.732 0.29 0 0.574 0.024 0.855 0.060l-1.643 5.455c-0.022-0.001-0.043-0.007-0.066-0.007-1.185 0-2.149 0.961-2.149 2.142s0.964 2.142 2.149 2.142c0.797 0 1.485-0.44 1.857-1.084l4.432 2.014c-1.233 1.66-3.207 2.743-5.436 2.743-3.73 0-6.764-3.020-6.764-6.732zM17.092 8.992c0 0.506-0.415 0.918-0.925 0.918s-0.925-0.412-0.925-0.918c0-0.506 0.415-0.918 0.925-0.918s0.925 0.412 0.925 0.918zM2.829 26.233c-0.271 0.269-0.71 0.268-0.98 0.001-0.13-0.13-0.202-0.302-0.202-0.485s0.072-0.354 0.202-0.483l1.104-1.1 0.977 0.973-1.1 1.096zM6.517 30.518c-0.271 0.269-0.711 0.269-0.981 0.001-0.13-0.13-0.202-0.302-0.202-0.485s0.072-0.354 0.202-0.483l1.105-1.1 0.977 0.973-1.101 1.096zM10.512 26.537c-0.001 0.001-0.001 0.001-0.002 0.001l-2.025 2.020-0.977-0.973 2.023-2.014c0 0 0 0 0-0.001s0.001-0.001 0.002-0.001c0.046-0.046 0.075-0.101 0.103-0.155 0.008-0.016 0.023-0.029 0.030-0.046 0.019-0.047 0.022-0.098 0.029-0.148 0.004-0.028 0.016-0.054 0.016-0.083 0-0.041-0.015-0.081-0.023-0.121-0.007-0.037-0.007-0.074-0.021-0.11-0.023-0.058-0.063-0.108-0.105-0.158-0.012-0.013-0.016-0.031-0.029-0.043 0 0 0 0-0.001 0s-0.001-0.002-0.001-0.002l-1.844-1.836c-0.020-0.020-0.045-0.028-0.067-0.044-0.032-0.025-0.064-0.048-0.1-0.066-0.035-0.017-0.070-0.028-0.107-0.037-0.039-0.011-0.077-0.020-0.118-0.023-0.037-0.002-0.072 0.001-0.11 0.006-0.041 0.005-0.080 0.010-0.119 0.023-0.039 0.012-0.073 0.031-0.108 0.051-0.023 0.013-0.048 0.017-0.070 0.033l-2.035 1.519-1.034-1.029 2.753-2.738 5.004 4.921-1.064 1.055zM18.337 18.485c-0.018-0.002-0.034 0.004-0.052 0.003-0.045-0.002-0.087 0.001-0.132 0.008-0.035 0.006-0.068 0.013-0.101 0.024-0.039 0.013-0.075 0.032-0.111 0.054-0.034 0.021-0.065 0.043-0.095 0.070-0.015 0.013-0.032 0.019-0.046 0.034l-5.391 5.905-4.967-4.885 3.251-3.234c0.239-0.239 0.241-0.626 0.002-0.866-0.121-0.121-0.279-0.18-0.438-0.179v-0.001l-2.546 0.015 0.032-1.845 3.562 0.031c1.452 1.485 3.476 2.411 5.716 2.411 0.502 0 0.991-0.052 1.468-0.141 0.046 0.037 0.091 0.074 0.149 0.097l2.765 1.102 0.379 1.886-3.446-0.49zM22.974 18.69l-0.359-1.788 1.66-1.239 1.086 1.442-2.387 1.585zM27.282 15.441l-0.962 0.901-1.069-1.419 0.954-0.731c0.178-0.137 0.403-0.193 0.623-0.164 0.222 0.031 0.417 0.147 0.551 0.326 0.249 0.335 0.206 0.802-0.098 1.087z"></path>
</symbol>
<symbol id="icon-phone" viewBox="0 0 20 32">
<path fill="#757575" style="fill: var(--color3, #757575)" d="M17 0h-14c-1.654 0-3 1.346-3 3v26c0 1.654 1.346 3 3 3h14c1.654 0 3-1.346 3-3v-26c0-1.654-1.346-3-3-3zM3 2h14c0.552 0 1 0.448 1 1v21h-16v-21c0-0.552 0.448-1 1-1zM17 30h-14c-0.552 0-1-0.448-1-1v-3h16v3c0 0.552-0.448 1-1 1z"></path>
</symbol>
<symbol id="icon-facebook" viewBox="0 0 32 32">
<path d="M29 0h-26c-1.65 0-3 1.35-3 3v26c0 1.65 1.35 3 3 3h13v-14h-4v-4h4v-2c0-3.306 2.694-6 6-6h4v4h-4c-1.1 0-2 0.9-2 2v2h6l-1 4h-5v14h9c1.65 0 3-1.35 3-3v-26c0-1.65-1.35-3-3-3z"></path>
</symbol>
<symbol id="icon-instagram" viewBox="0 0 32 32">
<path d="M16 2.881c4.275 0 4.781 0.019 6.462 0.094 1.563 0.069 2.406 0.331 2.969 0.55 0.744 0.288 1.281 0.638 1.837 1.194 0.563 0.563 0.906 1.094 1.2 1.838 0.219 0.563 0.481 1.412 0.55 2.969 0.075 1.688 0.094 2.194 0.094 6.463s-0.019 4.781-0.094 6.463c-0.069 1.563-0.331 2.406-0.55 2.969-0.288 0.744-0.637 1.281-1.194 1.837-0.563 0.563-1.094 0.906-1.837 1.2-0.563 0.219-1.413 0.481-2.969 0.55-1.688 0.075-2.194 0.094-6.463 0.094s-4.781-0.019-6.463-0.094c-1.563-0.069-2.406-0.331-2.969-0.55-0.744-0.288-1.281-0.637-1.838-1.194-0.563-0.563-0.906-1.094-1.2-1.837-0.219-0.563-0.481-1.413-0.55-2.969-0.075-1.688-0.094-2.194-0.094-6.463s0.019-4.781 0.094-6.463c0.069-1.563 0.331-2.406 0.55-2.969 0.288-0.744 0.638-1.281 1.194-1.838 0.563-0.563 1.094-0.906 1.838-1.2 0.563-0.219 1.412-0.481 2.969-0.55 1.681-0.075 2.188-0.094 6.463-0.094zM16 0c-4.344 0-4.887 0.019-6.594 0.094-1.7 0.075-2.869 0.35-3.881 0.744-1.056 0.412-1.95 0.956-2.837 1.85-0.894 0.888-1.438 1.781-1.85 2.831-0.394 1.019-0.669 2.181-0.744 3.881-0.075 1.713-0.094 2.256-0.094 6.6s0.019 4.887 0.094 6.594c0.075 1.7 0.35 2.869 0.744 3.881 0.413 1.056 0.956 1.95 1.85 2.837 0.887 0.887 1.781 1.438 2.831 1.844 1.019 0.394 2.181 0.669 3.881 0.744 1.706 0.075 2.25 0.094 6.594 0.094s4.888-0.019 6.594-0.094c1.7-0.075 2.869-0.35 3.881-0.744 1.050-0.406 1.944-0.956 2.831-1.844s1.438-1.781 1.844-2.831c0.394-1.019 0.669-2.181 0.744-3.881 0.075-1.706 0.094-2.25 0.094-6.594s-0.019-4.887-0.094-6.594c-0.075-1.7-0.35-2.869-0.744-3.881-0.394-1.063-0.938-1.956-1.831-2.844-0.887-0.887-1.781-1.438-2.831-1.844-1.019-0.394-2.181-0.669-3.881-0.744-1.712-0.081-2.256-0.1-6.6-0.1v0z"></path>
<path d="M16 7.781c-4.537 0-8.219 3.681-8.219 8.219s3.681 8.219 8.219 8.219 8.219-3.681 8.219-8.219c0-4.537-3.681-8.219-8.219-8.219zM16 21.331c-2.944 0-5.331-2.387-5.331-5.331s2.387-5.331 5.331-5.331c2.944 0 5.331 2.387 5.331 5.331s-2.387 5.331-5.331 5.331z"></path>
<path d="M26.462 7.456c0 1.060-0.859 1.919-1.919 1.919s-1.919-0.859-1.919-1.919c0-1.060 0.859-1.919 1.919-1.919s1.919 0.859 1.919 1.919z"></path>
</symbol>
<symbol id="icon-twitter" viewBox="0 0 32 32">
<path d="M32 7.075c-1.175 0.525-2.444 0.875-3.769 1.031 1.356-0.813 2.394-2.1 2.887-3.631-1.269 0.75-2.675 1.3-4.169 1.594-1.2-1.275-2.906-2.069-4.794-2.069-3.625 0-6.563 2.938-6.563 6.563 0 0.512 0.056 1.012 0.169 1.494-5.456-0.275-10.294-2.888-13.531-6.862-0.563 0.969-0.887 2.1-0.887 3.3 0 2.275 1.156 4.287 2.919 5.463-1.075-0.031-2.087-0.331-2.975-0.819 0 0.025 0 0.056 0 0.081 0 3.181 2.263 5.838 5.269 6.437-0.55 0.15-1.131 0.231-1.731 0.231-0.425 0-0.831-0.044-1.237-0.119 0.838 2.606 3.263 4.506 6.131 4.563-2.25 1.762-5.075 2.813-8.156 2.813-0.531 0-1.050-0.031-1.569-0.094 2.913 1.869 6.362 2.95 10.069 2.95 12.075 0 18.681-10.006 18.681-18.681 0-0.287-0.006-0.569-0.019-0.85 1.281-0.919 2.394-2.075 3.275-3.394z"></path>
</symbol>
<symbol id="icon-linkedin" viewBox="0 0 32 32">
<path d="M29 0h-26c-1.65 0-3 1.35-3 3v26c0 1.65 1.35 3 3 3h26c1.65 0 3-1.35 3-3v-26c0-1.65-1.35-3-3-3zM12 26h-4v-14h4v14zM10 10c-1.106 0-2-0.894-2-2s0.894-2 2-2c1.106 0 2 0.894 2 2s-0.894 2-2 2zM26 26h-4v-8c0-1.106-0.894-2-2-2s-2 0.894-2 2v8h-4v-14h4v2.481c0.825-1.131 2.087-2.481 3.5-2.481 2.488 0 4.5 2.238 4.5 5v9z"></path>
</symbol>
</defs>
</svg>
